<?xml version="1.0" encoding="UTF-8"?>
<svg id="Layer_1" xmlns="http://www.w3.org/2000/svg" viewBox="0 0 24 24">
  <defs>
    <style>
      .cls-1 {
        fill: #f2f2f2;
      }
    </style>
  </defs>
  <g>
    <path class="cls-1" d="M13.7,13.19c-.46,2.97-2.92,5.24-5.88,5.24h-1.42v-3.78h1.42c.98,0,1.82-.6,2.2-1.46h3.68M14.77,12.19h-5.55c0,.81-.63,1.46-1.41,1.46h-1.71c-.1,0-.17-.08-.17-.17v-.46h-.54v6.98h.54v-.39c0-.1.08-.17.17-.17h1.71c3.84,0,6.96-3.25,6.96-7.24h0Z"/>
    <path class="cls-1" d="M17.61,5.57v3.78h-1.42c-.98,0-1.82.6-2.2,1.46h-3.68c.46-2.97,2.92-5.24,5.88-5.24h1.42M18.61,4h-.54v.39c0,.1-.08.17-.17.17h-1.71c-3.84,0-6.96,3.25-6.96,7.24h5.55c0-.81.63-1.46,1.41-1.46h1.71c.1,0,.17.08.17.17v.46h.54v-6.98h0Z"/>
  </g>
  <path class="cls-1" d="M18.99,18.08h-.77v-4.03s-.04-.08-.08-.08h-2.84s-.08.04-.08.08v4.03h-.77c-.41,0-.66.44-.46.79l2.47,4.28c.11.2.4.2.51,0l2.47-4.28c.2-.35-.05-.79-.46-.79Z"/>
</svg>