<?xml version="1.0" encoding="UTF-8"?>
<svg xmlns="http://www.w3.org/2000/svg" version="1.1" viewBox="0 0 24 24">
  <defs>
    <style>
      .cls-1 {
        fill: #f2f2f2;
      }
    </style>
  </defs>
  <!-- Generator: Adobe Illustrator 28.6.0, SVG Export Plug-In . SVG Version: 1.2.0 Build 709)  -->
  <g>
    <g id="Layer_1">
      <g>
        <path d="M13.7,13.19c-.46,2.97-2.92,5.24-5.88,5.24h-1.42v-3.78h1.42c.98,0,1.82-.6,2.2-1.46h3.68M14.77,12.19h-5.55c0,.81-.63,1.46-1.41,1.46h-1.71c-.1,0-.17-.08-.17-.17v-.46h-.54v6.98h.54v-.39c0-.1.08-.17.17-.17h1.71c3.84,0,6.96-3.25,6.96-7.24h0Z"/>
        <path d="M17.61,5.57v3.78h-1.42c-.98,0-1.82.6-2.2,1.46h-3.68c.46-2.97,2.92-5.24,5.88-5.24h1.42M18.61,4h-.54v.39c0,.1-.08.17-.17.17h-1.71c-3.84,0-6.96,3.25-6.96,7.24h5.55c0-.81.63-1.46,1.41-1.46h1.71c.1,0,.17.08.17.17v.46h.54v-6.98h0Z"/>
      </g>
      <g>
        <path class="cls-1" d="M57.7,13.19c-.46,2.97-2.92,5.24-5.88,5.24h-1.42v-3.78h1.42c.98,0,1.82-.6,2.2-1.46h3.68M58.77,12.19h-5.55c0,.81-.63,1.46-1.41,1.46h-1.71c-.1,0-.17-.08-.17-.17v-.46h-.54v6.98h.54v-.39c0-.1.08-.17.17-.17h1.71c3.84,0,6.96-3.25,6.96-7.24h0Z"/>
        <path class="cls-1" d="M61.61,5.57v3.78h-1.42c-.98,0-1.82.6-2.2,1.46h-3.68c.46-2.97,2.92-5.24,5.88-5.24h1.42M62.61,4h-.54v.39c0,.1-.08.17-.17.17h-1.71c-3.84,0-6.96,3.25-6.96,7.24h5.55c0-.81.63-1.46,1.41-1.46h1.71c.1,0,.17.08.17.17v.46h.54v-6.98h0Z"/>
      </g>
    </g>
  </g>
</svg>